<svg xmlns="http://www.w3.org/2000/svg" width="28" height="28" viewBox="0 0 28.653 28.653"><g transform="translate(-753.5 -524.5)"><path d="M13.326,0A13.326,13.326,0,1,1,0,13.326,13.326,13.326,0,0,1,13.326,0Z" transform="translate(754.5 525.5)" fill="#434343" stroke="#fff" stroke-width="2"/><path d="M4.4,23.657a.246.246,0,0,1-.362.019L.082,19.925a.263.263,0,0,1-.011-.37l1.262-1.334a.263.263,0,0,1,.371-.01l2.164,2.051a.246.246,0,0,0,.362-.019l4.228-4.912a.263.263,0,0,1,.37-.028l1.395,1.2a.263.263,0,0,1,.028.37Z" transform="translate(762.999 519.76)" fill="#fff"/></g></svg>